<svg width="32" height="32" viewBox="0 0 32 32" fill="none" xmlns="http://www.w3.org/2000/svg">
<path d="M18.666 10.6666H19.9993C20.353 10.6666 20.6921 10.5261 20.9422 10.2761C21.1922 10.0261 21.3327 9.68691 21.3327 9.33329C21.3327 8.97967 21.1922 8.64053 20.9422 8.39048C20.6921 8.14044 20.353 7.99996 19.9993 7.99996H18.666C18.3124 7.99996 17.9733 8.14044 17.7232 8.39048C17.4732 8.64053 17.3327 8.97967 17.3327 9.33329C17.3327 9.68691 17.4732 10.0261 17.7232 10.2761C17.9733 10.5261 18.3124 10.6666 18.666 10.6666ZM18.666 16H19.9993C20.353 16 20.6921 15.8595 20.9422 15.6094C21.1922 15.3594 21.3327 15.0202 21.3327 14.6666C21.3327 14.313 21.1922 13.9739 20.9422 13.7238C20.6921 13.4738 20.353 13.3333 19.9993 13.3333H18.666C18.3124 13.3333 17.9733 13.4738 17.7232 13.7238C17.4732 13.9739 17.3327 14.313 17.3327 14.6666C17.3327 15.0202 17.4732 15.3594 17.7232 15.6094C17.9733 15.8595 18.3124 16 18.666 16ZM11.9993 10.6666H13.3327C13.6863 10.6666 14.0254 10.5261 14.2755 10.2761C14.5255 10.0261 14.666 9.68691 14.666 9.33329C14.666 8.97967 14.5255 8.64053 14.2755 8.39048C14.0254 8.14044 13.6863 7.99996 13.3327 7.99996H11.9993C11.6457 7.99996 11.3066 8.14044 11.0565 8.39048C10.8065 8.64053 10.666 8.97967 10.666 9.33329C10.666 9.68691 10.8065 10.0261 11.0565 10.2761C11.3066 10.5261 11.6457 10.6666 11.9993 10.6666ZM11.9993 16H13.3327C13.6863 16 14.0254 15.8595 14.2755 15.6094C14.5255 15.3594 14.666 15.0202 14.666 14.6666C14.666 14.313 14.5255 13.9739 14.2755 13.7238C14.0254 13.4738 13.6863 13.3333 13.3327 13.3333H11.9993C11.6457 13.3333 11.3066 13.4738 11.0565 13.7238C10.8065 13.9739 10.666 14.313 10.666 14.6666C10.666 15.0202 10.8065 15.3594 11.0565 15.6094C11.3066 15.8595 11.6457 16 11.9993 16ZM27.9993 26.6666H26.666V3.99996C26.666 3.64634 26.5255 3.3072 26.2755 3.05715C26.0254 2.8071 25.6863 2.66663 25.3327 2.66663H6.66602C6.31239 2.66663 5.97326 2.8071 5.72321 3.05715C5.47316 3.3072 5.33268 3.64634 5.33268 3.99996V26.6666H3.99935C3.64573 26.6666 3.30659 26.8071 3.05654 27.0571C2.80649 27.3072 2.66602 27.6463 2.66602 28C2.66602 28.3536 2.80649 28.6927 3.05654 28.9428C3.30659 29.1928 3.64573 29.3333 3.99935 29.3333H27.9993C28.353 29.3333 28.6921 29.1928 28.9422 28.9428C29.1922 28.6927 29.3327 28.3536 29.3327 28C29.3327 27.6463 29.1922 27.3072 28.9422 27.0571C28.6921 26.8071 28.353 26.6666 27.9993 26.6666ZM17.3327 26.6666H14.666V21.3333H17.3327V26.6666ZM23.9993 26.6666H19.9993V20C19.9993 19.6463 19.8589 19.3072 19.6088 19.0571C19.3588 18.8071 19.0196 18.6666 18.666 18.6666H13.3327C12.9791 18.6666 12.6399 18.8071 12.3899 19.0571C12.1398 19.3072 11.9993 19.6463 11.9993 20V26.6666H7.99935V5.33329H23.9993V26.6666Z" fill="white"/>
</svg>
