<svg width="32" height="32" viewBox="0 0 32 32" fill="none" xmlns="http://www.w3.org/2000/svg">
<path d="M3.3331 14.08L15.3331 21.0133C15.5358 21.1304 15.7657 21.192 15.9998 21.192C16.2338 21.192 16.4637 21.1304 16.6664 21.0133L28.6664 14.08C28.8685 13.9628 29.0362 13.7946 29.1528 13.5922C29.2694 13.3898 29.3307 13.1603 29.3307 12.9267C29.3307 12.6931 29.2694 12.4636 29.1528 12.2612C29.0362 12.0588 28.8685 11.8906 28.6664 11.7733L16.6664 4.84001C16.4637 4.72299 16.2338 4.66138 15.9998 4.66138C15.7657 4.66138 15.5358 4.72299 15.3331 4.84001L3.3331 11.7733C3.13105 11.8906 2.96334 12.0588 2.84675 12.2612C2.73016 12.4636 2.6688 12.6931 2.6688 12.9267C2.6688 13.1603 2.73016 13.3898 2.84675 13.5922C2.96334 13.7946 3.13105 13.9628 3.3331 14.08ZM15.9998 7.53334L25.3331 12.8667L15.9998 18.2667L6.66644 12.92L15.9998 7.53334ZM27.3331 17.92L15.9998 24.4667L4.66644 17.92C4.51505 17.8313 4.34765 17.7733 4.17382 17.7495C3.99999 17.7256 3.82316 17.7362 3.65346 17.7808C3.48376 17.8254 3.32453 17.9031 3.1849 18.0093C3.04527 18.1156 2.92799 18.2483 2.83977 18.4C2.75161 18.5522 2.69443 18.7203 2.67152 18.8947C2.64861 19.069 2.66042 19.2462 2.70627 19.416C2.75213 19.5858 2.83112 19.7448 2.9387 19.884C3.04628 20.0231 3.18032 20.1396 3.3331 20.2267L15.3331 27.16C15.5358 27.277 15.7657 27.3386 15.9998 27.3386C16.2338 27.3386 16.4637 27.277 16.6664 27.16L28.6664 20.2267C28.8192 20.1396 28.9533 20.0231 29.0608 19.884C29.1684 19.7448 29.2474 19.5858 29.2933 19.416C29.3391 19.2462 29.3509 19.069 29.328 18.8947C29.3051 18.7203 29.2479 18.5522 29.1598 18.4C29.0716 18.2483 28.9543 18.1156 28.8146 18.0093C28.675 17.9031 28.5158 17.8254 28.3461 17.7808C28.1764 17.7362 27.9995 17.7256 27.8257 17.7495C27.6519 17.7733 27.4845 17.8313 27.3331 17.92Z" fill="white"/>
</svg>
