<svg width="32" height="32" viewBox="0 0 32 32" fill="none" xmlns="http://www.w3.org/2000/svg">
<path d="M9.99937 7.99998C9.60381 7.99998 9.21713 8.11728 8.88823 8.33704C8.55933 8.55681 8.30299 8.86916 8.15161 9.23461C8.00024 9.60007 7.96063 10.0022 8.0378 10.3902C8.11497 10.7781 8.30545 11.1345 8.58516 11.4142C8.86486 11.6939 9.22123 11.8844 9.60919 11.9616C9.99715 12.0387 10.3993 11.9991 10.7647 11.8477C11.1302 11.6964 11.4425 11.44 11.6623 11.1111C11.8821 10.7822 11.9994 10.3955 11.9994 9.99998C11.9994 9.46955 11.7887 8.96084 11.4136 8.58577C11.0385 8.2107 10.5298 7.99998 9.99937 7.99998ZM28.1594 14.28L16.946 3.05331C16.8215 2.92974 16.6737 2.83197 16.5112 2.76562C16.3488 2.69927 16.1748 2.66563 15.9994 2.66665H3.99937C3.64575 2.66665 3.30661 2.80712 3.05656 3.05717C2.80651 3.30722 2.66604 3.64636 2.66604 3.99998V16C2.66502 16.1755 2.69866 16.3494 2.76501 16.5119C2.83136 16.6743 2.92913 16.8221 3.0527 16.9466L14.2794 28.16C15.0294 28.9091 16.046 29.3298 17.106 29.3298C18.166 29.3298 19.1827 28.9091 19.9327 28.16L28.1594 20C28.9084 19.25 29.3292 18.2333 29.3292 17.1733C29.3292 16.1133 28.9084 15.0967 28.1594 14.3466V14.28ZM26.2794 18.04L18.0394 26.2667C17.7896 26.515 17.4516 26.6544 17.0994 26.6544C16.7471 26.6544 16.4092 26.515 16.1594 26.2667L5.3327 15.4533V5.33331H15.4527L26.2794 16.16C26.4029 16.2846 26.5007 16.4323 26.5671 16.5948C26.6334 16.7572 26.6671 16.9312 26.666 17.1066C26.6646 17.4564 26.5257 17.7916 26.2794 18.04Z" fill="white"/>
</svg>
