<svg width="32" height="32" viewBox="0 0 32 32" fill="none" xmlns="http://www.w3.org/2000/svg">
<path d="M26.546 20.68H20.506C20.1524 20.68 19.8133 20.8204 19.5632 21.0705C19.3132 21.3205 19.1727 21.6597 19.1727 22.0133C19.1727 22.3669 19.3132 22.7061 19.5632 22.9561C19.8133 23.2061 20.1524 23.3466 20.506 23.3466H23.706C22.2353 24.8836 20.3386 25.9457 18.2596 26.3965C16.1806 26.8473 14.0143 26.6661 12.0391 25.8763C10.0638 25.0865 8.36984 23.7241 7.1748 21.9642C5.97977 20.2043 5.33825 18.1272 5.33268 16C5.33268 15.6463 5.19221 15.3072 4.94216 15.0571C4.69211 14.8071 4.35297 14.6666 3.99935 14.6666C3.64573 14.6666 3.30659 14.8071 3.05654 15.0571C2.80649 15.3072 2.66602 15.6463 2.66602 16C2.67306 18.6037 3.44231 21.1484 4.87882 23.32C6.31533 25.4916 8.35624 27.1951 10.7497 28.2203C13.1431 29.2454 15.7843 29.5473 18.3474 29.0888C20.9104 28.6303 23.2831 27.4313 25.1727 25.64V28C25.1727 28.3536 25.3132 28.6927 25.5632 28.9428C25.8133 29.1928 26.1524 29.3333 26.506 29.3333C26.8596 29.3333 27.1988 29.1928 27.4488 28.9428C27.6989 28.6927 27.8393 28.3536 27.8393 28V22C27.8361 21.6555 27.6996 21.3256 27.4585 21.0796C27.2174 20.8335 26.8904 20.6903 26.546 20.68ZM15.9993 2.66663C12.5812 2.67638 9.29734 3.99851 6.82601 6.35996V3.99996C6.82601 3.64634 6.68554 3.3072 6.43549 3.05715C6.18544 2.8071 5.8463 2.66663 5.49268 2.66663C5.13906 2.66663 4.79992 2.8071 4.54987 3.05715C4.29982 3.3072 4.15935 3.64634 4.15935 3.99996V9.99996C4.15935 10.3536 4.29982 10.6927 4.54987 10.9428C4.79992 11.1928 5.13906 11.3333 5.49268 11.3333H11.4927C11.8463 11.3333 12.1854 11.1928 12.4355 10.9428C12.6855 10.6927 12.826 10.3536 12.826 9.99996C12.826 9.64634 12.6855 9.3072 12.4355 9.05715C12.1854 8.8071 11.8463 8.66663 11.4927 8.66663H8.29268C9.76264 7.13045 11.6581 6.06863 13.7359 5.61744C15.8136 5.16625 17.9788 5.34629 19.9535 6.13444C21.9282 6.9226 23.6223 8.28291 24.8183 10.0408C26.0144 11.7986 26.6578 13.8738 26.666 16C26.666 16.3536 26.8065 16.6927 27.0565 16.9428C27.3066 17.1928 27.6457 17.3333 27.9993 17.3333C28.353 17.3333 28.6921 17.1928 28.9422 16.9428C29.1922 16.6927 29.3327 16.3536 29.3327 16C29.3327 14.249 28.9878 12.5152 28.3177 10.8975C27.6477 9.27984 26.6656 7.80998 25.4274 6.57187C24.1893 5.33375 22.7195 4.35163 21.1018 3.68157C19.4841 3.0115 17.7503 2.66663 15.9993 2.66663Z" fill="white"/>
</svg>
