<svg width="113" height="36" viewBox="0 0 113 36" fill="none" xmlns="http://www.w3.org/2000/svg">
<path d="M38.0078 31.5644C36.8059 30.3626 36.2043 30.3626 33.1989 28.559C33.1989 28.559 30.7937 27.3571 26.5851 23.7501C23.9765 21.5146 25.8881 19.7125 22.0174 18.9833C21.8673 17.9034 21.6682 16.2934 21.6682 15.3608C21.6682 14.87 20.5939 13.7901 20.3933 14.3146C20.3316 14.4773 20.6402 17.2036 20.8351 18.8514C18.019 18.808 17.3206 20.9901 16.9644 21.345C15.7625 22.5468 14.8327 23.1078 9.75034 24.3504C4.75771 25.5705 3.90924 25.8397 2.53627 26.7555C0.651409 28.0121 -0.382178 30.4411 0.131109 30.9642C0.442448 31.2811 1.35262 30.9291 3.00748 30.1311L35.0767 33.7256C38.1214 35.9989 38.6768 36.3074 39.2097 35.7745C39.6655 35.3173 39.838 33.3946 38.0078 31.5644ZM4.28649 29.5015C4.35802 29.4664 4.42814 29.4313 4.50107 29.3949C5.37478 28.9629 5.36636 28.869 6.14331 28.5576C9.1487 27.3558 10.9522 26.7541 12.7571 26.1525C15.109 25.3685 17.6979 23.9731 20.5729 24.349C24.2767 24.8328 25.271 25.9323 27.2596 27.5591C30.5469 30.249 28.4545 28.754 33.7991 32.7649C33.823 32.7817 33.844 32.7986 33.8664 32.8154L4.28649 29.5015Z" fill="#8783C4"/>
<path d="M18.98 17.5387C17.6575 17.1909 16.5819 16.7281 15.7559 16.1503L17.3686 12.5293C18.1456 13.0425 19.0474 13.4563 20.0725 13.769C21.0977 14.0832 22.106 14.2402 23.099 14.2402C24.9838 14.2402 25.9262 13.769 25.9262 12.8266C25.9262 12.3301 25.657 11.9627 25.1199 11.7229C24.5827 11.4831 23.7188 11.2306 22.5282 10.967C21.2211 10.6865 20.13 10.3836 19.2535 10.061C18.377 9.73844 17.6239 9.22235 16.9956 8.50991C16.3673 7.79888 16.0532 6.83962 16.0532 5.63213C16.0532 4.57471 16.3421 3.61966 16.9213 2.76698C17.5005 1.91571 18.3644 1.24115 19.513 0.744687C20.6615 0.248229 22.0724 0 23.7427 0C24.8842 0 26.0076 0.127619 27.1155 0.384263C28.2234 0.640907 29.1995 1.01676 30.0424 1.51321L28.5291 5.15952C26.8757 4.26617 25.2713 3.8202 23.7174 3.8202C22.7413 3.8202 22.0303 3.96465 21.5843 4.25355C21.1384 4.54245 20.914 4.9197 20.914 5.3825C20.914 5.8453 21.1776 6.19311 21.7078 6.42451C22.2365 6.65591 23.0877 6.89572 24.263 7.14395C25.5855 7.42584 26.6808 7.72736 27.5503 8.04992C28.4184 8.37248 29.1701 8.88576 29.8068 9.58838C30.4435 10.291 30.7618 11.246 30.7618 12.4535C30.7618 13.4955 30.4729 14.438 29.8937 15.2808C29.3145 16.1237 28.4464 16.7982 27.2894 17.3031C26.1324 17.8066 24.7258 18.059 23.0723 18.059C21.6671 18.0604 20.3025 17.8865 18.98 17.5387Z" fill="black"/>
<path d="M49.7848 0.349121V17.7125H44.8735V10.9402H38.1769V17.7125H33.2656V0.349121H38.1769V6.8732H44.8735V0.349121H49.7848Z" fill="black"/>
<path d="M65.139 14.3397H57.7973L56.4327 17.7125H51.4219L59.0861 0.349121H63.9245L71.614 17.7125H66.505L65.139 14.3397ZM63.7015 10.7172L61.4688 5.16084L59.2362 10.7172H63.7015Z" fill="black"/>
<path d="M80.8419 13.0986H78.1632V17.7125H73.252V0.349121H81.1897C82.7604 0.349121 84.125 0.609973 85.282 1.13027C86.439 1.65057 87.3323 2.39526 87.9606 3.36293C88.5889 4.3306 88.903 5.46797 88.903 6.77363C88.903 8.0302 88.6099 9.1269 88.0223 10.0609C87.4347 10.9949 86.596 11.727 85.5049 12.2557L89.2508 17.7125H83.9917L80.8419 13.0986ZM83.1741 4.88877C82.6608 4.4428 81.9007 4.21841 80.8924 4.21841H78.1632V9.30361H80.8924C81.9007 9.30361 82.6622 9.08483 83.1741 8.64587C83.686 8.20831 83.9426 7.58423 83.9426 6.77363C83.9426 5.96443 83.686 5.33474 83.1741 4.88877Z" fill="black"/>
<path d="M107.53 17.7125L107.481 8.50983L103.015 16.0002H100.833L96.3932 8.75666V17.7111H91.8535V0.349121H95.8967L101.999 10.3709L107.952 0.349121H111.995L112.044 17.7125H107.53Z" fill="black"/>
<path d="M20.3848 13.8518C20.3848 13.8518 21.4492 12.9038 22.3454 13.2025C23.1868 13.483 24.1124 14.8237 24.2569 15.114C24.8936 16.3888 23.3916 16.1616 22.9821 15.7507C22.3454 15.114 22.2388 14.8349 21.7073 14.4759C21.4127 14.2782 20.3848 13.8518 20.3848 13.8518Z" fill="#8783C4"/>
</svg>
