<svg width="32" height="32" viewBox="0 0 32 32" fill="none" xmlns="http://www.w3.org/2000/svg">
<path d="M27.3191 10.0268C27.3115 9.99162 27.3115 9.95526 27.3191 9.92011C27.3126 9.88933 27.3126 9.85755 27.3191 9.82677V9.70677L27.2391 9.50677C27.2066 9.4522 27.1662 9.40277 27.1191 9.36011L26.9991 9.25344H26.9324L21.6791 5.93344L16.7191 2.86677C16.6044 2.77575 16.473 2.70783 16.3324 2.66677H16.2258C16.1066 2.64688 15.985 2.64688 15.8658 2.66677H15.7324C15.5776 2.70103 15.4291 2.75953 15.2924 2.84011L5.33245 9.04011L5.21245 9.13344L5.09245 9.24011L4.95911 9.33344L4.89245 9.41344L4.81245 9.61344V9.73344V9.81344C4.7995 9.90186 4.7995 9.99169 4.81245 10.0801V21.7201C4.81199 21.9467 4.8693 22.1697 4.97894 22.368C5.08859 22.5663 5.24696 22.7333 5.43911 22.8534L15.4391 29.0401L15.6391 29.1201H15.7458C15.9714 29.1917 16.2135 29.1917 16.4391 29.1201H16.5458L16.7458 29.0401L26.6658 22.9468C26.8579 22.8267 27.0163 22.6596 27.126 22.4613C27.2356 22.263 27.2929 22.04 27.2924 21.8134V10.1734C27.2924 10.1734 27.3191 10.0801 27.3191 10.0268ZM15.9991 5.56011L18.3724 7.02677L10.9191 11.6401L8.53245 10.1734L15.9991 5.56011ZM14.6658 25.5601L7.33245 21.0801V12.5601L14.6658 17.0934V25.5601ZM15.9991 14.7468L13.4524 13.2134L20.9058 8.58677L23.4658 10.1734L15.9991 14.7468ZM24.6658 21.0401L17.3324 25.6001V17.0934L24.6658 12.5601V21.0401Z" fill="white"/>
</svg>
