<svg width="32" height="32" viewBox="0 0 32 32" fill="none" xmlns="http://www.w3.org/2000/svg">
<path d="M26.666 17.5733V14.6667C26.666 11.8377 25.5422 9.12458 23.5418 7.12419C21.5414 5.12381 18.8283 4 15.9993 4C13.1704 4 10.4573 5.12381 8.45688 7.12419C6.45649 9.12458 5.33268 11.8377 5.33268 14.6667V17.5733C4.55462 17.8484 3.88068 18.3574 3.40327 19.0306C2.92585 19.7037 2.66833 20.5081 2.66602 21.3333V24C2.66602 25.0609 3.08744 26.0783 3.83759 26.8284C4.58773 27.5786 5.60515 28 6.66602 28H10.666C11.0196 28 11.3588 27.8595 11.6088 27.6095C11.8589 27.3594 11.9993 27.0203 11.9993 26.6667V18.6667C11.9993 18.313 11.8589 17.9739 11.6088 17.7239C11.3588 17.4738 11.0196 17.3333 10.666 17.3333H7.99935V14.6667C7.99935 12.5449 8.8422 10.5101 10.3425 9.00981C11.8428 7.50952 13.8776 6.66667 15.9993 6.66667C18.1211 6.66667 20.1559 7.50952 21.6562 9.00981C23.1565 10.5101 23.9993 12.5449 23.9993 14.6667V17.3333H21.3327C20.9791 17.3333 20.6399 17.4738 20.3899 17.7239C20.1398 17.9739 19.9993 18.313 19.9993 18.6667V26.6667C19.9993 27.0203 20.1398 27.3594 20.3899 27.6095C20.6399 27.8595 20.9791 28 21.3327 28H25.3327C26.3935 28 27.411 27.5786 28.1611 26.8284C28.9113 26.0783 29.3327 25.0609 29.3327 24V21.3333C29.3304 20.5081 29.0728 19.7037 28.5954 19.0306C28.118 18.3574 27.4441 17.8484 26.666 17.5733ZM9.33268 20V25.3333H6.66602C6.31239 25.3333 5.97326 25.1929 5.72321 24.9428C5.47316 24.6928 5.33268 24.3536 5.33268 24V21.3333C5.33268 20.9797 5.47316 20.6406 5.72321 20.3905C5.97326 20.1405 6.31239 20 6.66602 20H9.33268ZM26.666 24C26.666 24.3536 26.5255 24.6928 26.2755 24.9428C26.0254 25.1929 25.6863 25.3333 25.3327 25.3333H22.666V20H25.3327C25.6863 20 26.0254 20.1405 26.2755 20.3905C26.5255 20.6406 26.666 20.9797 26.666 21.3333V24Z" fill="white"/>
</svg>
