<svg width="32" height="32" viewBox="0 0 32 32" fill="none" xmlns="http://www.w3.org/2000/svg">
<path d="M29.3327 9.65344C29.3337 9.47796 29.3001 9.30401 29.2337 9.14156C29.1674 8.97911 29.0696 8.83136 28.946 8.70677L23.2927 3.05344C23.1681 2.92986 23.0204 2.83209 22.8579 2.76574C22.6955 2.69939 22.5215 2.66576 22.346 2.66677C22.1706 2.66576 21.9966 2.69939 21.8342 2.76574C21.6717 2.83209 21.524 2.92986 21.3994 3.05344L17.626 6.82677L3.0527 21.4001C2.92913 21.5247 2.83136 21.6724 2.76501 21.8349C2.69866 21.9973 2.66502 22.1713 2.66604 22.3468V28.0001C2.66604 28.3537 2.80651 28.6929 3.05656 28.9429C3.30661 29.193 3.64575 29.3334 3.99937 29.3334H9.6527C9.83927 29.3436 10.0259 29.3144 10.2005 29.2478C10.375 29.1812 10.5337 29.0786 10.666 28.9468L25.1594 14.3734L28.946 10.6668C29.0677 10.5375 29.1669 10.3888 29.2394 10.2268C29.2522 10.1205 29.2522 10.013 29.2394 9.90677C29.2456 9.8447 29.2456 9.78217 29.2394 9.7201L29.3327 9.65344ZM9.10604 26.6668H5.3327V22.8934L18.5727 9.65344L22.346 13.4268L9.10604 26.6668ZM24.226 11.5468L20.4527 7.77344L22.346 5.89344L26.106 9.65344L24.226 11.5468Z" fill="white"/>
</svg>
